<svg id="svgQrWrapper" viewBox="0 0 300 300" xmlns="http://www.w3.org/2000/svg" xmlns:xlink="http://www.w3.org/1999/xlink" width="300" height="300" style="width: 100%; height: 100%; background-color: rgb(255, 255, 255);"><svg fill="#22071b" xmlns="http://www.w3.org/2000/svg" width="300" height="300" viewBox="0 0 300 300"><path d="M259.93.91H41.08a3.9,3.9,0,0,0-3.9,3.89V295a3.9,3.9,0,0,0,3.9,3.89H259.93a3.9,3.9,0,0,0,3.9-3.89V4.8A3.9,3.9,0,0,0,259.93.91ZM70.27,73.64H231.43v5.2H70.27ZM232,263.81a3.85,3.85,0,0,1-3.85,3.85H73.81A3.85,3.85,0,0,1,70,263.81V107.9A3.85,3.85,0,0,1,73.81,104H228.17A3.85,3.85,0,0,1,232,107.9Z"/><g transform="translate(76, 111)scale(0.5)" fill="none"><svg width="300" height="300"><style>.background-color{ fill: #fff; }.dot-color{ fill: #22071b; }.corners-square-color-0-0{ fill: #22071b; }.corners-dot-color-0-0{ fill: #22071b; }.corners-square-color-1-0{ fill: #22071b; }.corners-dot-color-1-0{ fill: #22071b; }.corners-square-color-0-1{ fill: #22071b; }.corners-dot-color-0-1{ fill: #22071b; }</style><defs/><g class="dot-color"><path d="M 5 135v 10h 10v -5a 5 5, 0, 0, 0, -5 -5" transform="rotate(-90,10,140)"/><rect x="5" y="145" width="10" height="10" transform="rotate(0,10,150)"/><path d="M 5 165v 5a 5 5, 0, 0, 0, 5 5h 5v -5a 5 5, 0, 0, 0, -5 -5" transform="rotate(90,10,170)"/><path d="M 5 185v 10h 10v -5a 5 5, 0, 0, 0, -5 -5" transform="rotate(-90,10,190)"/><path d="M 5 195v 10h 10v -5a 5 5, 0, 0, 0, -5 -5" transform="rotate(90,10,200)"/><path d="M 15 95v 10h 10v -5a 5 5, 0, 0, 0, -5 -5" transform="rotate(-90,20,100)"/><path d="M 15 115v 10h 10v -5a 5 5, 0, 0, 0, -5 -5" transform="rotate(-90,20,120)"/><rect x="15" y="125" width="10" height="10" transform="rotate(0,20,130)"/><rect x="15" y="145" width="10" height="10" transform="rotate(0,20,150)"/><path d="M 15 175v 10h 10v -5a 5 5, 0, 0, 0, -5 -5" transform="rotate(-90,20,180)"/><rect x="15" y="185" width="10" height="10" transform="rotate(0,20,190)"/><rect x="25" y="95" width="10" height="10" transform="rotate(0,30,100)"/><rect x="25" y="105" width="10" height="10" transform="rotate(0,30,110)"/><rect x="25" y="115" width="10" height="10" transform="rotate(0,30,120)"/><path d="M 25 125v 10h 10v -5a 5 5, 0, 0, 0, -5 -5" transform="rotate(90,30,130)"/><rect x="25" y="145" width="10" height="10" transform="rotate(0,30,150)"/><rect x="25" y="155" width="10" height="10" transform="rotate(0,30,160)"/><rect x="25" y="165" width="10" height="10" transform="rotate(0,30,170)"/><rect x="25" y="175" width="10" height="10" transform="rotate(0,30,180)"/><rect x="25" y="185" width="10" height="10" transform="rotate(0,30,190)"/><path d="M 25 205v 5a 5 5, 0, 0, 0, 5 5h 5v -5a 5 5, 0, 0, 0, -5 -5" transform="rotate(90,30,210)"/><path d="M 35 85v 10h 10v -5a 5 5, 0, 0, 0, -5 -5" transform="rotate(-90,40,90)"/><rect x="35" y="95" width="10" height="10" transform="rotate(0,40,100)"/><rect x="35" y="105" width="10" height="10" transform="rotate(0,40,110)"/><path d="M 35 115v 10h 10v -5a 5 5, 0, 0, 0, -5 -5" transform="rotate(90,40,120)"/><rect x="35" y="145" width="10" height="10" transform="rotate(0,40,150)"/><rect x="35" y="175" width="10" height="10" transform="rotate(0,40,180)"/><rect x="35" y="185" width="10" height="10" transform="rotate(0,40,190)"/><path d="M 45 95v 10h 10v -5a 5 5, 0, 0, 0, -5 -5" transform="rotate(90,50,100)"/><path d="M 45 125v 10h 10v -5a 5 5, 0, 0, 0, -5 -5" transform="rotate(-90,50,130)"/><path d="M 45 145v 10h 10v -5a 5 5, 0, 0, 0, -5 -5" transform="rotate(90,50,150)"/><rect x="45" y="175" width="10" height="10" transform="rotate(0,50,180)"/><path d="M 45 185v 10h 10v -5a 5 5, 0, 0, 0, -5 -5" transform="rotate(90,50,190)"/><path d="M 45 205v 5a 5 5, 0, 0, 0, 5 5h 5v -5a 5 5, 0, 0, 0, -5 -5" transform="rotate(90,50,210)"/><path d="M 55 85v 10h 10v -5a 5 5, 0, 0, 0, -5 -5" transform="rotate(-90,60,90)"/><path d="M 55 105v 10h 10v -5a 5 5, 0, 0, 0, -5 -5" transform="rotate(-90,60,110)"/><rect x="55" y="125" width="10" height="10" transform="rotate(0,60,130)"/><path d="M 55 135v 10h 10v -5a 5 5, 0, 0, 0, -5 -5" transform="rotate(90,60,140)"/><path d="M 55 175v 10h 10v -5a 5 5, 0, 0, 0, -5 -5" transform="rotate(90,60,180)"/><rect x="65" y="85" width="10" height="10" transform="rotate(0,70,90)"/><rect x="65" y="105" width="10" height="10" transform="rotate(0,70,110)"/><path d="M 65 125v 10h 10v -5a 5 5, 0, 0, 0, -5 -5" transform="rotate(90,70,130)"/><path d="M 65 145v 5a 5 5, 0, 0, 0, 5 5h 5v -5a 5 5, 0, 0, 0, -5 -5" transform="rotate(90,70,150)"/><path d="M 65 165v 10h 10v -5a 5 5, 0, 0, 0, -5 -5" transform="rotate(-90,70,170)"/><path d="M 65 185v 5a 5 5, 0, 0, 0, 5 5h 5v -5a 5 5, 0, 0, 0, -5 -5" transform="rotate(90,70,190)"/><path d="M 65 205v 5a 5 5, 0, 0, 0, 5 5h 5v -5a 5 5, 0, 0, 0, -5 -5" transform="rotate(90,70,210)"/><rect x="75" y="85" width="10" height="10" transform="rotate(0,80,90)"/><rect x="75" y="95" width="10" height="10" transform="rotate(0,80,100)"/><rect x="75" y="105" width="10" height="10" transform="rotate(0,80,110)"/><path d="M 75 115v 10h 10v -5a 5 5, 0, 0, 0, -5 -5" transform="rotate(90,80,120)"/><rect x="75" y="165" width="10" height="10" transform="rotate(0,80,170)"/><path d="M 75 195v 10h 10v -5a 5 5, 0, 0, 0, -5 -5" transform="rotate(-90,80,200)"/><path d="M 85 15v 10h 10v -5a 5 5, 0, 0, 0, -5 -5" transform="rotate(-90,90,20)"/><rect x="85" y="25" width="10" height="10" transform="rotate(0,90,30)"/><path d="M 85 65v 5a 5 5, 0, 0, 0, 5 5h 5v -5a 5 5, 0, 0, 0, -5 -5" transform="rotate(90,90,70)"/><path d="M 85 95v 10h 10v -5a 5 5, 0, 0, 0, -5 -5" transform="rotate(90,90,100)"/><path d="M 85 125v 5a 5 5, 0, 0, 0, 5 5h 5v -5a 5 5, 0, 0, 0, -5 -5" transform="rotate(90,90,130)"/><rect x="85" y="165" width="10" height="10" transform="rotate(0,90,170)"/><path d="M 85 185v 10h 10v -5a 5 5, 0, 0, 0, -5 -5" transform="rotate(-90,90,190)"/><rect x="85" y="195" width="10" height="10" transform="rotate(0,90,200)"/><rect x="85" y="205" width="10" height="10" transform="rotate(0,90,210)"/><path d="M 85 225v 10h 10v -5a 5 5, 0, 0, 0, -5 -5" transform="rotate(-90,90,230)"/><rect x="85" y="235" width="10" height="10" transform="rotate(0,90,240)"/><path d="M 85 255v 5a 5 5, 0, 0, 0, 5 5h 5v -5a 5 5, 0, 0, 0, -5 -5" transform="rotate(90,90,260)"/><path d="M 95 5v 5a 5 5, 0, 0, 0, 5 5h 5v -5a 5 5, 0, 0, 0, -5 -5" transform="rotate(90,100,10)"/><rect x="95" y="25" width="10" height="10" transform="rotate(0,100,30)"/><rect x="95" y="35" width="10" height="10" transform="rotate(0,100,40)"/><path d="M 95 45v 10h 10v -5a 5 5, 0, 0, 0, -5 -5" transform="rotate(90,100,50)"/><path d="M 95 115v 10h 10v -5a 5 5, 0, 0, 0, -5 -5" transform="rotate(-90,100,120)"/><path d="M 95 155v 10h 10v -5a 5 5, 0, 0, 0, -5 -5" transform="rotate(-90,100,160)"/><rect x="95" y="165" width="10" height="10" transform="rotate(0,100,170)"/><rect x="95" y="175" width="10" height="10" transform="rotate(0,100,180)"/><path d="M 95 185v 10h 10v -5a 5 5, 0, 0, 0, -5 -5" transform="rotate(90,100,190)"/><rect x="95" y="205" width="10" height="10" transform="rotate(0,100,210)"/><rect x="95" y="215" width="10" height="10" transform="rotate(0,100,220)"/><rect x="95" y="225" width="10" height="10" transform="rotate(0,100,230)"/><path d="M 95 235v 10h 10v -5a 5 5, 0, 0, 0, -5 -5" transform="rotate(90,100,240)"/><path d="M 95 275v 10h 10v -5a 5 5, 0, 0, 0, -5 -5" transform="rotate(-90,100,280)"/><rect x="95" y="285" width="10" height="10" transform="rotate(0,100,290)"/><path d="M 105 15v 5a 5 5, 0, 0, 0, 5 5h 5v -5a 5 5, 0, 0, 0, -5 -5" transform="rotate(90,110,20)"/><path d="M 105 65v 10h 10v -5a 5 5, 0, 0, 0, -5 -5" transform="rotate(-90,110,70)"/><rect x="105" y="75" width="10" height="10" transform="rotate(0,110,80)"/><path d="M 105 85v 10h 10v -5a 5 5, 0, 0, 0, -5 -5" transform="rotate(90,110,90)"/><path d="M 105 105v 10h 10v -5a 5 5, 0, 0, 0, -5 -5" transform="rotate(-90,110,110)"/><path d="M 105 115v 10h 10v -5a 5 5, 0, 0, 0, -5 -5" transform="rotate(90,110,120)"/><path d="M 105 145v 10h 10v -5a 5 5, 0, 0, 0, -5 -5" transform="rotate(-90,110,150)"/><rect x="105" y="155" width="10" height="10" transform="rotate(0,110,160)"/><rect x="105" y="165" width="10" height="10" transform="rotate(0,110,170)"/><path d="M 105 175v 10h 10v -5a 5 5, 0, 0, 0, -5 -5" transform="rotate(90,110,180)"/><path d="M 105 195v 10h 10v -5a 5 5, 0, 0, 0, -5 -5" transform="rotate(-90,110,200)"/><rect x="105" y="205" width="10" height="10" transform="rotate(0,110,210)"/><path d="M 105 215v 10h 10v -5a 5 5, 0, 0, 0, -5 -5" transform="rotate(90,110,220)"/><path d="M 105 245v 5a 5 5, 0, 0, 0, 5 5h 5v -5a 5 5, 0, 0, 0, -5 -5" transform="rotate(90,110,250)"/><path d="M 105 285v 10h 10v -5a 5 5, 0, 0, 0, -5 -5" transform="rotate(90,110,290)"/><path d="M 115 5v 10h 10v -5a 5 5, 0, 0, 0, -5 -5" transform="rotate(-90,120,10)"/><path d="M 115 35v 10h 10v -5a 5 5, 0, 0, 0, -5 -5" transform="rotate(-90,120,40)"/><path d="M 115 55v 5a 5 5, 0, 0, 0, 5 5h 5v -5a 5 5, 0, 0, 0, -5 -5" transform="rotate(90,120,60)"/><rect x="115" y="75" width="10" height="10" transform="rotate(0,120,80)"/><path d="M 115 105v 10h 10v -5a 5 5, 0, 0, 0, -5 -5" transform="rotate(90,120,110)"/><rect x="115" y="145" width="10" height="10" transform="rotate(0,120,150)"/><path d="M 115 185v 5a 5 5, 0, 0, 0, 5 5h 5v -5a 5 5, 0, 0, 0, -5 -5" transform="rotate(90,120,190)"/><path d="M 115 205v 10h 10v -5a 5 5, 0, 0, 0, -5 -5" transform="rotate(90,120,210)"/><path d="M 115 225v 10h 10v -5a 5 5, 0, 0, 0, -5 -5" transform="rotate(-90,120,230)"/><path d="M 115 255v 10h 10v -5a 5 5, 0, 0, 0, -5 -5" transform="rotate(-90,120,260)"/><rect x="125" y="5" width="10" height="10" transform="rotate(0,130,10)"/><path d="M 125 25v 10h 10v -5a 5 5, 0, 0, 0, -5 -5" transform="rotate(-90,130,30)"/><rect x="125" y="35" width="10" height="10" transform="rotate(0,130,40)"/><path d="M 125 45v 10h 10v -5a 5 5, 0, 0, 0, -5 -5" transform="rotate(90,130,50)"/><path d="M 125 65v 10h 10v -5a 5 5, 0, 0, 0, -5 -5" transform="rotate(-90,130,70)"/><rect x="125" y="75" width="10" height="10" transform="rotate(0,130,80)"/><path d="M 125 95v 5a 5 5, 0, 0, 0, 5 5h 5v -5a 5 5, 0, 0, 0, -5 -5" transform="rotate(90,130,100)"/><path d="M 125 115v 10h 10v -5a 5 5, 0, 0, 0, -5 -5" transform="rotate(-90,130,120)"/><rect x="125" y="145" width="10" height="10" transform="rotate(0,130,150)"/><path d="M 125 165v 10h 10v -5a 5 5, 0, 0, 0, -5 -5" transform="rotate(-90,130,170)"/><path d="M 125 195v 10h 10v -5a 5 5, 0, 0, 0, -5 -5" transform="rotate(-90,130,200)"/><path d="M 125 215v 10h 10v -5a 5 5, 0, 0, 0, -5 -5" transform="rotate(-90,130,220)"/><rect x="125" y="225" width="10" height="10" transform="rotate(0,130,230)"/><rect x="125" y="255" width="10" height="10" transform="rotate(0,130,260)"/><path d="M 125 275v 5a 5 5, 0, 0, 0, 5 5h 5v -5a 5 5, 0, 0, 0, -5 -5" transform="rotate(90,130,280)"/><path d="M 135 5v 10h 10v -5a 5 5, 0, 0, 0, -5 -5" transform="rotate(90,140,10)"/><path d="M 135 25v 10h 10v -5a 5 5, 0, 0, 0, -5 -5" transform="rotate(90,140,30)"/><path d="M 135 75v 10h 10v -5a 5 5, 0, 0, 0, -5 -5" transform="rotate(90,140,80)"/><rect x="135" y="115" width="10" height="10" transform="rotate(0,140,120)"/><path d="M 135 145v 10h 10v -5a 5 5, 0, 0, 0, -5 -5" transform="rotate(90,140,150)"/><rect x="135" y="165" width="10" height="10" transform="rotate(0,140,170)"/><rect x="135" y="195" width="10" height="10" transform="rotate(0,140,200)"/><path d="M 135 205v 10h 10v -5a 5 5, 0, 0, 0, -5 -5" transform="rotate(90,140,210)"/><path d="M 135 225v 10h 10v -5a 5 5, 0, 0, 0, -5 -5" transform="rotate(90,140,230)"/><rect x="135" y="255" width="10" height="10" transform="rotate(0,140,260)"/><path d="M 135 285v 10h 10v -5a 5 5, 0, 0, 0, -5 -5" transform="rotate(-90,140,290)"/><path d="M 145 15v 5a 5 5, 0, 0, 0, 5 5h 5v -5a 5 5, 0, 0, 0, -5 -5" transform="rotate(90,150,20)"/><path d="M 145 45v 5a 5 5, 0, 0, 0, 5 5h 5v -5a 5 5, 0, 0, 0, -5 -5" transform="rotate(90,150,50)"/><path d="M 145 65v 5a 5 5, 0, 0, 0, 5 5h 5v -5a 5 5, 0, 0, 0, -5 -5" transform="rotate(90,150,70)"/><path d="M 145 105v 10h 10v -5a 5 5, 0, 0, 0, -5 -5" transform="rotate(-90,150,110)"/><rect x="145" y="115" width="10" height="10" transform="rotate(0,150,120)"/><rect x="145" y="125" width="10" height="10" transform="rotate(0,150,130)"/><path d="M 145 135v 10h 10v -5a 5 5, 0, 0, 0, -5 -5" transform="rotate(90,150,140)"/><path d="M 145 155v 10h 10v -5a 5 5, 0, 0, 0, -5 -5" transform="rotate(-90,150,160)"/><rect x="145" y="165" width="10" height="10" transform="rotate(0,150,170)"/><path d="M 145 175v 10h 10v -5a 5 5, 0, 0, 0, -5 -5" transform="rotate(90,150,180)"/><path d="M 145 195v 10h 10v -5a 5 5, 0, 0, 0, -5 -5" transform="rotate(90,150,200)"/><path d="M 145 215v 5a 5 5, 0, 0, 0, 5 5h 5v -5a 5 5, 0, 0, 0, -5 -5" transform="rotate(90,150,220)"/><rect x="145" y="255" width="10" height="10" transform="rotate(0,150,260)"/><path d="M 145 265v 10h 10v -5a 5 5, 0, 0, 0, -5 -5" transform="rotate(90,150,270)"/><rect x="145" y="285" width="10" height="10" transform="rotate(0,150,290)"/><path d="M 155 35v 5a 5 5, 0, 0, 0, 5 5h 5v -5a 5 5, 0, 0, 0, -5 -5" transform="rotate(90,160,40)"/><path d="M 155 55v 5a 5 5, 0, 0, 0, 5 5h 5v -5a 5 5, 0, 0, 0, -5 -5" transform="rotate(90,160,60)"/><path d="M 155 75v 10h 10v -5a 5 5, 0, 0, 0, -5 -5" transform="rotate(-90,160,80)"/><rect x="155" y="85" width="10" height="10" transform="rotate(0,160,90)"/><rect x="155" y="105" width="10" height="10" transform="rotate(0,160,110)"/><rect x="155" y="115" width="10" height="10" transform="rotate(0,160,120)"/><path d="M 155 155v 10h 10v -5a 5 5, 0, 0, 0, -5 -5" transform="rotate(90,160,160)"/><path d="M 155 225v 10h 10v -5a 5 5, 0, 0, 0, -5 -5" transform="rotate(-90,160,230)"/><path d="M 155 255v 10h 10v -5a 5 5, 0, 0, 0, -5 -5" transform="rotate(90,160,260)"/><path d="M 155 285v 10h 10v -5a 5 5, 0, 0, 0, -5 -5" transform="rotate(90,160,290)"/><path d="M 165 5v 10h 10v -5a 5 5, 0, 0, 0, -5 -5" transform="rotate(-90,170,10)"/><path d="M 165 15v 10h 10v -5a 5 5, 0, 0, 0, -5 -5" transform="rotate(90,170,20)"/><path d="M 165 45v 5a 5 5, 0, 0, 0, 5 5h 5v -5a 5 5, 0, 0, 0, -5 -5" transform="rotate(90,170,50)"/><path d="M 165 65v 5a 5 5, 0, 0, 0, 5 5h 5v -5a 5 5, 0, 0, 0, -5 -5" transform="rotate(90,170,70)"/><rect x="165" y="85" width="10" height="10" transform="rotate(0,170,90)"/><rect x="165" y="115" width="10" height="10" transform="rotate(0,170,120)"/><rect x="165" y="125" width="10" height="10" transform="rotate(0,170,130)"/><rect x="165" y="135" width="10" height="10" transform="rotate(0,170,140)"/><path d="M 165 145v 10h 10v -5a 5 5, 0, 0, 0, -5 -5" transform="rotate(90,170,150)"/><path d="M 165 165v 10h 10v -5a 5 5, 0, 0, 0, -5 -5" transform="rotate(-90,170,170)"/><rect x="165" y="175" width="10" height="10" transform="rotate(0,170,180)"/><rect x="165" y="185" width="10" height="10" transform="rotate(0,170,190)"/><rect x="165" y="195" width="10" height="10" transform="rotate(0,170,200)"/><rect x="165" y="225" width="10" height="10" transform="rotate(0,170,230)"/><rect x="165" y="235" width="10" height="10" transform="rotate(0,170,240)"/><path d="M 175 25v 10h 10v -5a 5 5, 0, 0, 0, -5 -5" transform="rotate(-90,180,30)"/><path d="M 175 35v 10h 10v -5a 5 5, 0, 0, 0, -5 -5" transform="rotate(90,180,40)"/><rect x="175" y="85" width="10" height="10" transform="rotate(0,180,90)"/><path d="M 175 95v 10h 10v -5a 5 5, 0, 0, 0, -5 -5" transform="rotate(90,180,100)"/><rect x="175" y="115" width="10" height="10" transform="rotate(0,180,120)"/><rect x="175" y="165" width="10" height="10" transform="rotate(0,180,170)"/><rect x="175" y="195" width="10" height="10" transform="rotate(0,180,200)"/><path d="M 175 205v 10h 10v -5a 5 5, 0, 0, 0, -5 -5" transform="rotate(90,180,210)"/><rect x="175" y="225" width="10" height="10" transform="rotate(0,180,230)"/><path d="M 175 235v 10h 10v -5a 5 5, 0, 0, 0, -5 -5" transform="rotate(90,180,240)"/><path d="M 175 255v 10h 10v -5a 5 5, 0, 0, 0, -5 -5" transform="rotate(-90,180,260)"/><path d="M 175 265v 10h 10v -5a 5 5, 0, 0, 0, -5 -5" transform="rotate(90,180,270)"/><path d="M 175 285v 10h 10v -5a 5 5, 0, 0, 0, -5 -5" transform="rotate(-90,180,290)"/><path d="M 185 5v 10h 10v -5a 5 5, 0, 0, 0, -5 -5" transform="rotate(-90,190,10)"/><path d="M 185 15v 10h 10v -5a 5 5, 0, 0, 0, -5 -5" transform="rotate(90,190,20)"/><path d="M 185 55v 10h 10v -5a 5 5, 0, 0, 0, -5 -5" transform="rotate(-90,190,60)"/><rect x="185" y="65" width="10" height="10" transform="rotate(0,190,70)"/><rect x="185" y="75" width="10" height="10" transform="rotate(0,190,80)"/><rect x="185" y="115" width="10" height="10" transform="rotate(0,190,120)"/><path d="M 185 145v 10h 10v -5a 5 5, 0, 0, 0, -5 -5" transform="rotate(-90,190,150)"/><rect x="185" y="165" width="10" height="10" transform="rotate(0,190,170)"/><path d="M 185 175v 10h 10v -5a 5 5, 0, 0, 0, -5 -5" transform="rotate(90,190,180)"/><rect x="185" y="195" width="10" height="10" transform="rotate(0,190,200)"/><path d="M 185 285v 10h 10v -5a 5 5, 0, 0, 0, -5 -5" transform="rotate(90,190,290)"/><path d="M 195 45v 10h 10v -5a 5 5, 0, 0, 0, -5 -5" transform="rotate(-90,200,50)"/><path d="M 195 55v 10h 10v -5a 5 5, 0, 0, 0, -5 -5" transform="rotate(90,200,60)"/><rect x="195" y="75" width="10" height="10" transform="rotate(0,200,80)"/><path d="M 195 105v 10h 10v -5a 5 5, 0, 0, 0, -5 -5" transform="rotate(-90,200,110)"/><rect x="195" y="115" width="10" height="10" transform="rotate(0,200,120)"/><rect x="195" y="125" width="10" height="10" transform="rotate(0,200,130)"/><rect x="195" y="135" width="10" height="10" transform="rotate(0,200,140)"/><rect x="195" y="145" width="10" height="10" transform="rotate(0,200,150)"/><rect x="195" y="155" width="10" height="10" transform="rotate(0,200,160)"/><path d="M 195 165v 10h 10v -5a 5 5, 0, 0, 0, -5 -5" transform="rotate(90,200,170)"/><path d="M 195 185v 10h 10v -5a 5 5, 0, 0, 0, -5 -5" transform="rotate(-90,200,190)"/><path d="M 195 195v 10h 10v -5a 5 5, 0, 0, 0, -5 -5" transform="rotate(90,200,200)"/><path d="M 195 215v 10h 10v -5a 5 5, 0, 0, 0, -5 -5" transform="rotate(-90,200,220)"/><rect x="195" y="225" width="10" height="10" transform="rotate(0,200,230)"/><rect x="195" y="235" width="10" height="10" transform="rotate(0,200,240)"/><rect x="195" y="245" width="10" height="10" transform="rotate(0,200,250)"/><rect x="195" y="255" width="10" height="10" transform="rotate(0,200,260)"/><path d="M 195 275v 5a 5 5, 0, 0, 0, 5 5h 5v -5a 5 5, 0, 0, 0, -5 -5" transform="rotate(90,200,280)"/><path d="M 205 5v 10h 10v -5a 5 5, 0, 0, 0, -5 -5" transform="rotate(-90,210,10)"/><rect x="205" y="15" width="10" height="10" transform="rotate(0,210,20)"/><path d="M 205 25v 10h 10v -5a 5 5, 0, 0, 0, -5 -5" transform="rotate(90,210,30)"/><path d="M 205 45v 10h 10v -5a 5 5, 0, 0, 0, -5 -5" transform="rotate(90,210,50)"/><path d="M 205 65v 10h 10v -5a 5 5, 0, 0, 0, -5 -5" transform="rotate(-90,210,70)"/><rect x="205" y="75" width="10" height="10" transform="rotate(0,210,80)"/><rect x="205" y="85" width="10" height="10" transform="rotate(0,210,90)"/><rect x="205" y="125" width="10" height="10" transform="rotate(0,210,130)"/><rect x="205" y="135" width="10" height="10" transform="rotate(0,210,140)"/><rect x="205" y="145" width="10" height="10" transform="rotate(0,210,150)"/><path d="M 205 185v 10h 10v -5a 5 5, 0, 0, 0, -5 -5" transform="rotate(90,210,190)"/><path d="M 205 205v 10h 10v -5a 5 5, 0, 0, 0, -5 -5" transform="rotate(-90,210,210)"/><rect x="205" y="215" width="10" height="10" transform="rotate(0,210,220)"/><rect x="205" y="225" width="10" height="10" transform="rotate(0,210,230)"/><rect x="205" y="235" width="10" height="10" transform="rotate(0,210,240)"/><rect x="205" y="245" width="10" height="10" transform="rotate(0,210,250)"/><rect x="205" y="255" width="10" height="10" transform="rotate(0,210,260)"/><rect x="215" y="85" width="10" height="10" transform="rotate(0,220,90)"/><rect x="215" y="95" width="10" height="10" transform="rotate(0,220,100)"/><rect x="215" y="105" width="10" height="10" transform="rotate(0,220,110)"/><rect x="215" y="125" width="10" height="10" transform="rotate(0,220,130)"/><rect x="215" y="135" width="10" height="10" transform="rotate(0,220,140)"/><rect x="215" y="145" width="10" height="10" transform="rotate(0,220,150)"/><rect x="215" y="155" width="10" height="10" transform="rotate(0,220,160)"/><rect x="215" y="165" width="10" height="10" transform="rotate(0,220,170)"/><path d="M 215 175v 10h 10v -5a 5 5, 0, 0, 0, -5 -5" transform="rotate(90,220,180)"/><path d="M 215 195v 10h 10v -5a 5 5, 0, 0, 0, -5 -5" transform="rotate(-90,220,200)"/><rect x="215" y="205" width="10" height="10" transform="rotate(0,220,210)"/><rect x="215" y="245" width="10" height="10" transform="rotate(0,220,250)"/><rect x="215" y="255" width="10" height="10" transform="rotate(0,220,260)"/><path d="M 215 285v 10h 10v -5a 5 5, 0, 0, 0, -5 -5" transform="rotate(-90,220,290)"/><rect x="225" y="95" width="10" height="10" transform="rotate(0,230,100)"/><rect x="225" y="105" width="10" height="10" transform="rotate(0,230,110)"/><rect x="225" y="125" width="10" height="10" transform="rotate(0,230,130)"/><rect x="225" y="145" width="10" height="10" transform="rotate(0,230,150)"/><path d="M 225 155v 10h 10v -5a 5 5, 0, 0, 0, -5 -5" transform="rotate(90,230,160)"/><rect x="225" y="205" width="10" height="10" transform="rotate(0,230,210)"/><path d="M 225 225v 5a 5 5, 0, 0, 0, 5 5h 5v -5a 5 5, 0, 0, 0, -5 -5" transform="rotate(90,230,230)"/><rect x="225" y="245" width="10" height="10" transform="rotate(0,230,250)"/><rect x="225" y="255" width="10" height="10" transform="rotate(0,230,260)"/><rect x="225" y="265" width="10" height="10" transform="rotate(0,230,270)"/><rect x="225" y="275" width="10" height="10" transform="rotate(0,230,280)"/><rect x="225" y="285" width="10" height="10" transform="rotate(0,230,290)"/><rect x="235" y="105" width="10" height="10" transform="rotate(0,240,110)"/><rect x="235" y="115" width="10" height="10" transform="rotate(0,240,120)"/><path d="M 235 125v 10h 10v -5a 5 5, 0, 0, 0, -5 -5" transform="rotate(90,240,130)"/><path d="M 235 145v 10h 10v -5a 5 5, 0, 0, 0, -5 -5" transform="rotate(90,240,150)"/><path d="M 235 175v 10h 10v -5a 5 5, 0, 0, 0, -5 -5" transform="rotate(-90,240,180)"/><path d="M 235 195v 10h 10v -5a 5 5, 0, 0, 0, -5 -5" transform="rotate(-90,240,200)"/><rect x="235" y="205" width="10" height="10" transform="rotate(0,240,210)"/><rect x="235" y="245" width="10" height="10" transform="rotate(0,240,250)"/><path d="M 235 255v 10h 10v -5a 5 5, 0, 0, 0, -5 -5" transform="rotate(90,240,260)"/><rect x="235" y="285" width="10" height="10" transform="rotate(0,240,290)"/><path d="M 245 95v 10h 10v -5a 5 5, 0, 0, 0, -5 -5" transform="rotate(-90,250,100)"/><path d="M 245 135v 10h 10v -5a 5 5, 0, 0, 0, -5 -5" transform="rotate(-90,250,140)"/><path d="M 245 155v 5a 5 5, 0, 0, 0, 5 5h 5v -5a 5 5, 0, 0, 0, -5 -5" transform="rotate(90,250,160)"/><rect x="245" y="175" width="10" height="10" transform="rotate(0,250,180)"/><rect x="245" y="195" width="10" height="10" transform="rotate(0,250,200)"/><rect x="245" y="205" width="10" height="10" transform="rotate(0,250,210)"/><rect x="245" y="215" width="10" height="10" transform="rotate(0,250,220)"/><rect x="245" y="225" width="10" height="10" transform="rotate(0,250,230)"/><rect x="245" y="235" width="10" height="10" transform="rotate(0,250,240)"/><rect x="245" y="245" width="10" height="10" transform="rotate(0,250,250)"/><path d="M 245 275v 10h 10v -5a 5 5, 0, 0, 0, -5 -5" transform="rotate(-90,250,280)"/><path d="M 245 285v 10h 10v -5a 5 5, 0, 0, 0, -5 -5" transform="rotate(90,250,290)"/><rect x="255" y="95" width="10" height="10" transform="rotate(0,260,100)"/><rect x="255" y="105" width="10" height="10" transform="rotate(0,260,110)"/><rect x="255" y="115" width="10" height="10" transform="rotate(0,260,120)"/><rect x="255" y="125" width="10" height="10" transform="rotate(0,260,130)"/><path d="M 255 135v 10h 10v -5a 5 5, 0, 0, 0, -5 -5" transform="rotate(90,260,140)"/><rect x="255" y="175" width="10" height="10" transform="rotate(0,260,180)"/><rect x="255" y="195" width="10" height="10" transform="rotate(0,260,200)"/><path d="M 255 205v 10h 10v -5a 5 5, 0, 0, 0, -5 -5" transform="rotate(90,260,210)"/><rect x="255" y="235" width="10" height="10" transform="rotate(0,260,240)"/><rect x="255" y="245" width="10" height="10" transform="rotate(0,260,250)"/><rect x="255" y="255" width="10" height="10" transform="rotate(0,260,260)"/><rect x="255" y="265" width="10" height="10" transform="rotate(0,260,270)"/><rect x="255" y="275" width="10" height="10" transform="rotate(0,260,280)"/><path d="M 265 85v 10h 10v -5a 5 5, 0, 0, 0, -5 -5" transform="rotate(-90,270,90)"/><rect x="265" y="95" width="10" height="10" transform="rotate(0,270,100)"/><rect x="265" y="115" width="10" height="10" transform="rotate(0,270,120)"/><path d="M 265 125v 10h 10v -5a 5 5, 0, 0, 0, -5 -5" transform="rotate(90,270,130)"/><path d="M 265 145v 10h 10v -5a 5 5, 0, 0, 0, -5 -5" transform="rotate(-90,270,150)"/><path d="M 265 155v 10h 10v -5a 5 5, 0, 0, 0, -5 -5" transform="rotate(90,270,160)"/><path d="M 265 175v 10h 10v -5a 5 5, 0, 0, 0, -5 -5" transform="rotate(90,270,180)"/><path d="M 265 215v 10h 10v -5a 5 5, 0, 0, 0, -5 -5" transform="rotate(-90,270,220)"/><path d="M 265 245v 10h 10v -5a 5 5, 0, 0, 0, -5 -5" transform="rotate(90,270,250)"/><rect x="265" y="265" width="10" height="10" transform="rotate(0,270,270)"/><rect x="265" y="275" width="10" height="10" transform="rotate(0,270,280)"/><path d="M 265 285v 10h 10v -5a 5 5, 0, 0, 0, -5 -5" transform="rotate(90,270,290)"/><rect x="275" y="85" width="10" height="10" transform="rotate(0,280,90)"/><rect x="275" y="95" width="10" height="10" transform="rotate(0,280,100)"/><rect x="275" y="105" width="10" height="10" transform="rotate(0,280,110)"/><rect x="275" y="115" width="10" height="10" transform="rotate(0,280,120)"/><rect x="275" y="145" width="10" height="10" transform="rotate(0,280,150)"/><path d="M 275 185v 5a 5 5, 0, 0, 0, 5 5h 5v -5a 5 5, 0, 0, 0, -5 -5" transform="rotate(90,280,190)"/><rect x="275" y="215" width="10" height="10" transform="rotate(0,280,220)"/><path d="M 275 225v 10h 10v -5a 5 5, 0, 0, 0, -5 -5" transform="rotate(90,280,230)"/><path d="M 285 95v 10h 10v -5a 5 5, 0, 0, 0, -5 -5" transform="rotate(90,290,100)"/><path d="M 285 115v 10h 10v -5a 5 5, 0, 0, 0, -5 -5" transform="rotate(90,290,120)"/><path d="M 285 135v 10h 10v -5a 5 5, 0, 0, 0, -5 -5" transform="rotate(-90,290,140)"/><rect x="285" y="145" width="10" height="10" transform="rotate(0,290,150)"/><path d="M 285 155v 10h 10v -5a 5 5, 0, 0, 0, -5 -5" transform="rotate(90,290,160)"/><path d="M 285 205v 10h 10v -5a 5 5, 0, 0, 0, -5 -5" transform="rotate(-90,290,210)"/><path d="M 285 215v 10h 10v -5a 5 5, 0, 0, 0, -5 -5" transform="rotate(90,290,220)"/><path d="M 285 235v 10h 10v -5a 5 5, 0, 0, 0, -5 -5" transform="rotate(-90,290,240)"/><rect x="285" y="245" width="10" height="10" transform="rotate(0,290,250)"/><path d="M 285 255v 10h 10v -5a 5 5, 0, 0, 0, -5 -5" transform="rotate(90,290,260)"/><path d="M 285 285v 5a 5 5, 0, 0, 0, 5 5h 5v -5a 5 5, 0, 0, 0, -5 -5" transform="rotate(90,290,290)"/></g><g class="corners-square-color-0-0"><path clip-rule="evenodd" d="M 5 30v 20a 25 25, 0, 0, 0, 25 25h 20a 25 25, 0, 0, 0, 25 -25v -20a 25 25, 0, 0, 0, -25 -25h -20a 25 25, 0, 0, 0, -25 25M 30 15h 20a 15 15, 0, 0, 1, 15 15v 20a 15 15, 0, 0, 1, -15 15h -20a 15 15, 0, 0, 1, -15 -15v -20a 15 15, 0, 0, 1, 15 -15" transform="rotate(0,40,40)"/></g><g class="corners-dot-color-0-0"><circle cx="40" cy="40" r="15" transform="rotate(0,40,40)"/></g><g class="corners-square-color-1-0"><path clip-rule="evenodd" d="M 225 30v 20a 25 25, 0, 0, 0, 25 25h 20a 25 25, 0, 0, 0, 25 -25v -20a 25 25, 0, 0, 0, -25 -25h -20a 25 25, 0, 0, 0, -25 25M 250 15h 20a 15 15, 0, 0, 1, 15 15v 20a 15 15, 0, 0, 1, -15 15h -20a 15 15, 0, 0, 1, -15 -15v -20a 15 15, 0, 0, 1, 15 -15" transform="rotate(90,260,40)"/></g><g class="corners-dot-color-1-0"><circle cx="260" cy="40" r="15" transform="rotate(90,260,40)"/></g><g class="corners-square-color-0-1"><path clip-rule="evenodd" d="M 5 250v 20a 25 25, 0, 0, 0, 25 25h 20a 25 25, 0, 0, 0, 25 -25v -20a 25 25, 0, 0, 0, -25 -25h -20a 25 25, 0, 0, 0, -25 25M 30 235h 20a 15 15, 0, 0, 1, 15 15v 20a 15 15, 0, 0, 1, -15 15h -20a 15 15, 0, 0, 1, -15 -15v -20a 15 15, 0, 0, 1, 15 -15" transform="rotate(-90,40,260)"/></g><g class="corners-dot-color-0-1"><circle cx="40" cy="260" r="15" transform="rotate(-90,40,260)"/></g></svg></g></svg><g transform="translate(150,59)"><style>
               .small562{
                  fill:#ffffff;
                  font-size:40px;
                  font-family: Tahoma, sans-serif;
                  }</style><text x="0" y="-4" text-anchor="middle" class="small562">SCAN ME</text></g></svg>